<svg width="24" height="24" viewBox="0 0 24 24" fill="none" xmlns="http://www.w3.org/2000/svg">
<path d="M23.3754 14.8582C23.2659 16.1345 22.8738 17.3551 22.0215 18.3157L17.5445 23.5889C17.2876 23.8915 16.7974 23.7884 16.6841 23.408L15.8876 20.7324C15.8434 20.5841 15.8704 20.4236 15.9608 20.2979L19.5679 15.2794C19.8053 14.8638 19.8971 14.3493 19.9208 13.8702C20.0418 11.4256 20.0149 8.97576 19.8403 6.53394C19.8078 6.17614 19.6472 5.84192 19.3877 5.59237C19.1284 5.34281 18.0684 5.19458 17.7083 5.17475C15.8692 5.06193 13.9331 4.99209 11.9942 4.99209C10.0555 4.99209 7.40026 5.05656 5.56122 5.1855C5.20112 5.20532 4.8602 5.35355 4.60077 5.60311C4.34133 5.85267 4.18071 6.18688 4.14823 6.54468C3.95645 9.22702 3.94294 11.919 4.10778 14.6031C4.15241 14.999 4.3456 15.3635 4.64864 15.6236C4.95169 15.8836 5.34219 16.0199 5.74189 16.0052H14.1073C14.3285 16.0052 14.5234 16.1506 14.5866 16.3626L15.3285 18.8545C15.4239 19.1751 15.1838 19.4972 14.8493 19.4972H5.74728C4.46301 19.51 3.22137 19.0387 2.27122 18.1779C1.32107 17.3171 0.732634 16.1304 0.623856 14.8556C0.445515 11.9927 0.459027 9.12108 0.664304 6.25995C0.766229 5.07347 1.29045 3.96234 2.14239 3.12698C2.99433 2.29163 4.11791 1.78705 5.31044 1.70427C7.23038 1.56728 9.97184 1.50012 11.9942 1.50012C14.0167 1.50012 16.0391 1.56728 17.959 1.70427C19.1552 1.78492 21.0018 2.28994 21.8561 3.12773C22.7105 3.96551 23.2352 5.08059 23.335 6.27069C23.5399 9.12917 23.5534 11.998 23.3754 14.8582Z" fill="white"/>
</svg>
